<svg width="140" height="134" viewBox="0 0 140 134" fill="none" xmlns="http://www.w3.org/2000/svg">
<path d="M38.1293 49.5868C33.061 54.5372 17.7775 54.3015 15.7738 63.3773C13.77 72.4531 30.075 71.4315 20.017 84.8684C9.95896 98.3053 17.4632 111.271 34.2634 112.3C51.0636 113.328 56.2416 102.47 68.7748 104.199C81.308 105.927 99.106 120.229 108.771 106.949C118.436 93.6692 105.314 90.0546 108.771 73.0424C112.229 56.0302 119.222 49.9404 120.558 46.6008C121.894 43.2612 129.319 35.9142 119.419 24.756C109.518 13.5979 91.1303 33.0068 79.4615 31.1209C67.7926 29.235 60.0919 14.1087 49.2874 24.756C38.4829 35.4034 43.1976 44.6363 38.1293 49.5868Z" fill="#2488BE" fill-opacity="0.5"/>
<path d="M33.8171 67.515C31.8551 74.3228 18.4494 81.6662 21.1896 90.5474C23.9297 99.4287 37.6028 90.4875 35.4935 107.139C33.3842 123.79 46.3128 131.357 61.4291 123.955C76.5454 116.552 75.6849 104.553 87.4366 99.8656C99.1883 95.1787 121.727 98.8236 123.573 82.503C125.418 66.1825 112.222 69.5207 106.826 53.0206C101.43 36.5205 104.504 27.7712 104.016 24.2076C103.528 20.6441 106.356 10.5881 92.2361 5.77589C78.1162 0.963647 71.7139 26.9214 60.6362 31.0448C49.5584 35.1682 35.3917 25.8188 31.2556 40.4132C27.1195 55.0076 35.7792 60.7073 33.8171 67.515Z" fill="#2488BE" fill-opacity="0.5"/>
<path d="M61.4647 101.937C67.5357 105.589 71.1717 120.435 80.4592 120.079C89.7467 119.723 84.6361 104.206 100.179 110.54C115.723 116.875 126.37 106.336 123.117 89.8216C119.865 73.3071 108.051 71.0426 106.554 58.4795C105.058 45.9164 114.395 25.0809 99.1032 19.0872C83.8113 13.0935 83.6319 26.7036 66.2982 27.6596C48.9646 28.6156 41.3045 23.389 37.7357 22.9409C34.1669 22.4928 25.1811 17.1659 16.8887 29.5662C8.59629 41.9664 32.0233 54.8493 33.1489 66.6159C34.2745 78.3825 21.5865 89.6573 34.6196 97.4188C47.6527 105.18 55.3937 98.2846 61.4647 101.937Z" fill="#2488BE" fill-opacity="0.5"/>
<path fill-rule="evenodd" clip-rule="evenodd" d="M54.3155 44.7085C54.047 45.6484 56.8668 51.5231 57.9075 51.8924C58.3918 52.0642 59.5666 51.7025 61.077 51.2375C62.8119 50.7033 64.9896 50.0328 67.0719 49.8782C71.4277 49.5548 73.3528 51.6764 73.6515 55.82C73.9501 59.9635 66.6105 63.2724 66.6105 63.2724C66.6105 63.2724 61.5665 64.9509 61.1301 68.9456C60.6937 72.9403 60.6937 75.8273 61.1301 77.1029C61.5665 78.3785 69.8581 78.647 70.0595 77.4386C70.1102 77.1348 70.1247 76.865 70.14 76.5816C70.1856 75.7377 70.2377 74.774 71.268 72.4368C72.5382 70.5804 73.4706 69.9859 75.8112 68.4937C76.6874 67.9351 77.7609 67.2506 79.1232 66.3272C84.1251 62.9367 87.8513 55.3165 84.1251 48.9719C80.3989 42.6272 74.5578 39.9417 67.3069 40.0088C60.0559 40.0759 54.5841 43.7686 54.3155 44.7085ZM59.1495 85.6631C60.3245 81.9705 63.4128 81.3662 65.9641 81.6348C68.5153 81.9033 71.268 84.9581 70.9659 88.0465C70.6638 91.1349 69.5896 93.9211 64.6549 93.4511C59.7202 92.9812 57.9746 89.3557 59.1495 85.6631Z" fill="white"/>
</svg>
