<svg width="31" height="31" viewBox="0 0 31 31" fill="none" xmlns="http://www.w3.org/2000/svg">
<path d="M30.6503 15.1902C30.6503 23.4745 23.9346 30.1902 15.6503 30.1902C7.36603 30.1902 0.650299 23.4745 0.650299 15.1902C0.650299 6.90591 7.36603 0.190184 15.6503 0.190184C23.9346 0.190184 30.6503 6.90591 30.6503 15.1902Z" fill="#959288"/>
<path d="M13.7217 0.313013C21.0951 1.25941 26.7932 7.55937 26.7932 15.1902C26.7932 22.821 21.0951 29.121 13.7217 30.0674C14.3531 30.1484 14.9968 30.1902 15.6503 30.1902C23.9346 30.1902 30.6503 23.4745 30.6503 15.1902C30.6503 6.90591 23.9346 0.190184 15.6503 0.190184C14.9968 0.190184 14.3531 0.231969 13.7217 0.313013Z" fill="#717171"/>
<path d="M12.2217 8.54733C12.2217 9.84914 11.1664 10.9045 9.86458 10.9045C8.56277 10.9045 7.50744 9.84914 7.50744 8.54733C7.50744 7.24551 8.56277 6.19018 9.86458 6.19018C11.1664 6.19018 12.2217 7.24551 12.2217 8.54733Z" fill="#717171"/>
<path d="M11.7932 17.7616C11.7932 19.4185 10.45 20.7616 8.79316 20.7616C7.1363 20.7616 5.79316 19.4185 5.79316 17.7616C5.79316 16.1048 7.1363 14.7616 8.79316 14.7616C10.45 14.7616 11.7932 16.1048 11.7932 17.7616Z" fill="#717171"/>
<path d="M18.6503 11.333C18.6503 12.0431 18.0747 12.6188 17.3646 12.6188C16.6545 12.6188 16.0789 12.0431 16.0789 11.333C16.0789 10.623 16.6545 10.0473 17.3646 10.0473C18.0747 10.0473 18.6503 10.623 18.6503 11.333Z" fill="#717171"/>
<path d="M23.3646 20.7616C23.3646 21.9451 22.4052 22.9045 21.2217 22.9045C20.0383 22.9045 19.0789 21.9451 19.0789 20.7616C19.0789 19.5781 20.0383 18.6188 21.2217 18.6188C22.4052 18.6188 23.3646 19.5781 23.3646 20.7616Z" fill="#717171"/>
</svg>
