<svg width="30" height="30" viewBox="0 0 30 30" fill="none" xmlns="http://www.w3.org/2000/svg">
<path d="M30 15C30 23.2843 23.2843 30 15 30C6.71573 30 0 23.2843 0 15C0 6.71573 6.71573 0 15 0C23.2843 0 30 6.71573 30 15Z" fill="#EBBE20"/>
<path d="M16.9286 0.122831C9.5552 1.06923 3.85714 7.36919 3.85714 15C3.85714 22.6308 9.5552 28.9308 16.9286 29.8772C16.2972 29.9582 15.6535 30 15 30C6.71573 30 0 23.2843 0 15C0 6.71573 6.71573 0 15 0C15.6535 0 16.2972 0.0417873 16.9286 0.122831Z" fill="black" fill-opacity="0.1"/>
</svg>
